<mxfile host="app.diagrams.net" modified="2024-04-16T15:40:56.523Z" agent="Mozilla/5.0 (X11; Linux x86_64) AppleWebKit/537.36 (KHTML, like Gecko) Chrome/96.0.4664.110 Safari/537.36 Edg/96.0.1054.62" version="24.2.5" etag="Oabf-SR6XP4fzoZKMZNk" type="github">
  <diagram name="第 1 页" id="4vkJv1_wqhuj5zai7BZw">
    <mxGraphModel>
      <root>
        <mxCell id="0" />
        <mxCell id="1" parent="0" />
      </root>
    </mxGraphModel>
  </diagram>
</mxfile>
